/* XPM */
static char *_23b580781904746dc37831861531c2f[] = {
/* columns rows colors chars-per-pixel */
"16 16 99 2 ",
"   c #4986C8",
".  c #4E89C9",
"X  c #508ACA",
"o  c #528CCB",
"O  c #538CCB",
"+  c #548DCB",
"@  c #558DCB",
"#  c #568ECC",
"$  c #588FCC",
"%  c #5890CC",
"&  c #5990CD",
"*  c #5A91CD",
"=  c #5B91CD",
"-  c #5B92CD",
";  c #5C92CD",
":  c #5C92CE",
">  c #5D93CE",
",  c #5E93CE",
"<  c #5E94CE",
"1  c #5F94CE",
"2  c #5F94CF",
"3  c #6095CF",
"4  c #6195CF",
"5  c #6196CF",
"6  c #6296CF",
"7  c #6396CF",
"8  c #6397D0",
"9  c #6497D0",
"0  c #6498D0",
"q  c #6598D0",
"w  c #6699D0",
"e  c #689AD1",
"r  c #699BD1",
"t  c #6A9CD2",
"y  c #6B9CD2",
"u  c #6C9DD2",
"i  c #6D9ED3",
"p  c #6F9FD3",
"a  c #70A0D4",
"s  c #71A0D4",
"d  c #73A1D4",
"f  c #75A3D5",
"g  c #76A3D5",
"h  c #76A4D5",
"j  c #78A5D6",
"k  c #7AA6D7",
"l  c #7FA9D8",
"z  c #81ABD9",
"x  c #85ADDA",
"c  c #85AEDA",
"v  c #86AEDA",
"b  c #8BB1DC",
"n  c #8BB2DC",
"m  c #90B5DD",
"M  c #91B6DD",
"N  c #92B6DE",
"B  c #95B8DF",
"V  c #96B9DF",
"C  c #A0BFE2",
"Z  c #A0C0E2",
"A  c #A1C0E2",
"S  c #A3C2E3",
"D  c #A4C2E3",
"F  c #A5C3E4",
"G  c #ABC7E5",
"H  c #B1CBE7",
"J  c #B2CCE8",
"K  c #B4CDE8",
"L  c #B6CEE9",
"P  c #BCD2EA",
"I  c #C3D7ED",
"U  c #C5D8ED",
"Y  c #C6D9ED",
"T  c #C8DAEE",
"R  c #CCDDEF",
"E  c #D1E0F1",
"W  c #D2E1F1",
"Q  c #D4E2F1",
"!  c #D4E2F2",
"~  c #D9E5F3",
"^  c #DBE7F4",
"/  c #DCE7F4",
"(  c #DFEAF5",
")  c #E1EBF5",
"_  c #E2EBF6",
"`  c #E4EDF6",
"'  c #E7EFF7",
"]  c #E9F0F8",
"[  c #EEF3F9",
"{  c #EFF4FA",
"}  c #F0F5FA",
"|  c #F6F9FC",
" . c #F7F9FC",
".. c #F8FAFC",
"X. c #FBFCFE",
"o. c #FCFDFE",
"O. c #FEFEFE",
"+. c gray100",
"@. c None",
/* pixels */
"@.@.@.@.@.8 0 u r t 6 @.@.@.@.@.",
"@.@.@.6 9 > g H m S + 0 6 @.@.@.",
"@.@.6 6 6 = z W ) T > 8 8 6 @.@.",
"@.6 6 0 > n o.W K } / 8 6 9 6 @.",
"@.6 8 8 > ` W o O u o.C $ 0 6 @.",
"6 8 8 6 0 | D = u 6 v j 2 8 9 6 ",
"6 8 8 0 + ) G   $ > > > 8 6 8 6 ",
"6 8 9 > G ..] R / V > 0 6 8 8 6 ",
"6 8 8 2 m I { G J v > 9 8 8 8 6 ",
"6 8 6 0 + k ( + O > 9 8 8 8 8 6 ",
"6 8 8 8 + F I . 8 8 6 2 8 6 8 6 ",
"@.6 8 < k { K B z 9 r a 6 8 6 @.",
"@.7 0 = U X.~ ' ..} o.U $ 8 6 @.",
"@.@.8 > h u d P S ! m g 8 8 @.@.",
"@.@.@.9 6 = d C v b . 8 8 @.@.@.",
"@.@.@.@.@.0 2 > > > r @.@.@.@.@."
};
