/* XPM */
static char *_c1e74f57e3a4d72d6cad97270e91ae3[] = {
/* columns rows colors chars-per-pixel */
"32 32 149 2 ",
"   c #4583C7",
".  c #4A86C8",
"X  c #4D88C9",
"o  c #4E89C9",
"O  c #4F8ACA",
"+  c #518BCA",
"@  c #538CCB",
"#  c #548DCB",
"$  c #558DCB",
"%  c #578FCC",
"&  c #588FCC",
"*  c #5890CC",
"=  c #5990CD",
"-  c #5A91CD",
";  c #5B91CD",
":  c #5B92CD",
">  c #5C92CD",
",  c #5C92CE",
"<  c #5D93CE",
"1  c #5E93CE",
"2  c #5E94CE",
"3  c #5F94CE",
"4  c #5F94CF",
"5  c #6094CF",
"6  c #6095CF",
"7  c #6195CF",
"8  c #6196CF",
"9  c #6296CF",
"0  c #6396CF",
"q  c #6297CF",
"w  c #6397CF",
"e  c #6296D0",
"r  c #6396D0",
"t  c #6297D0",
"y  c #6397D0",
"u  c #6497D0",
"i  c #6498D0",
"p  c #6598D0",
"a  c #6699D0",
"s  c #6699D1",
"d  c #679AD1",
"f  c #689AD1",
"g  c #699BD1",
"h  c #6A9CD2",
"j  c #6B9CD2",
"k  c #6D9DD2",
"l  c #6E9ED3",
"z  c #6F9FD3",
"x  c #70A0D4",
"c  c #72A1D4",
"v  c #73A1D4",
"b  c #74A2D5",
"n  c #75A3D5",
"m  c #76A3D5",
"M  c #77A4D6",
"N  c #78A4D6",
"B  c #78A5D6",
"V  c #7DA8D7",
"C  c #7EA9D8",
"Z  c #7FA9D8",
"A  c #86AEDA",
"S  c #89B0DB",
"D  c #8BB1DB",
"F  c #8BB2DC",
"G  c #8DB3DC",
"H  c #8EB3DC",
"J  c #8EB4DD",
"K  c #90B5DD",
"L  c #91B5DD",
"P  c #92B6DE",
"I  c #95B8DF",
"U  c #96B9DF",
"Y  c #97BADF",
"T  c #9BBCE0",
"R  c #9CBDE1",
"E  c #9DBEE1",
"W  c #9FBFE2",
"Q  c #A0BFE2",
"!  c #A1C0E2",
"~  c #A4C2E3",
"^  c #A6C3E4",
"/  c #A6C4E4",
"(  c #A7C4E4",
")  c #A8C5E4",
"_  c #AAC6E5",
"`  c #ADC8E6",
"'  c #B0CAE7",
"]  c #B1CBE7",
"[  c #B2CBE7",
"{  c #B3CCE8",
"}  c #B6CEE9",
"|  c #B7CFE9",
" . c #B8CFE9",
".. c #B9D0E9",
"X. c #BAD1EA",
"o. c #BCD2EA",
"O. c #BDD3EB",
"+. c #C1D5EC",
"@. c #C5D8ED",
"#. c #C7D9EE",
"$. c #CADBEE",
"%. c #CADCEF",
"&. c #CBDCEF",
"*. c #CCDCEF",
"=. c #CDDDEF",
"-. c #CFDFF0",
";. c #D0E0F0",
":. c #D1E0F1",
">. c #D3E2F1",
",. c #D7E4F3",
"<. c #D8E5F3",
"1. c #D9E6F3",
"2. c #DAE6F3",
"3. c #DBE7F4",
"4. c #DCE8F4",
"5. c #DEE9F4",
"6. c #DFE9F5",
"7. c #E2EBF6",
"8. c #E2ECF6",
"9. c #E3ECF6",
"0. c #E4EDF7",
"q. c #E5EDF7",
"w. c #E7EFF7",
"e. c #E8EFF8",
"r. c #E9F0F8",
"t. c #EAF1F8",
"y. c #EBF1F8",
"u. c #ECF2F9",
"i. c #EDF3F9",
"p. c #EFF4FA",
"a. c #F0F5FA",
"s. c #F1F5FA",
"d. c #F2F6FB",
"f. c #F3F7FB",
"g. c #F4F7FB",
"h. c #F5F8FC",
"j. c #F7F9FC",
"k. c #F8FAFC",
"l. c #F9FBFD",
"z. c #FAFBFD",
"x. c #FAFCFD",
"c. c #FBFCFD",
"v. c #FCFDFE",
"b. c #FDFDFE",
"n. c #FDFEFE",
"m. c #FEFEFE",
"M. c #FEFEFF",
"N. c gray100",
"B. c None",
/* pixels */
"B.B.B.B.B.B.B.B.B.B.B.B.9 9 > 9 y 9 > 9 B.B.B.B.B.B.B.B.B.B.B.B.",
"B.B.B.B.B.B.B.B.B.9 9 y 9 u z h 9 h z 9 9 9 9 B.B.B.B.B.B.B.B.B.",
"B.B.B.B.B.B.B.9 y y y u 4 z l.{ o =.e.> 9 y y 9 9 B.B.B.B.B.B.B.",
"B.B.B.B.B.B.9 y y y y u 4 v N.}   :.s.u u y y u y 9 B.B.B.B.B.B.",
"B.B.B.B.B.9 y y y y 9 i > i o.Y z 2.i.& > i w u y u 9 B.B.B.B.B.",
"B.B.B.B.9 y 9 y y 9 u > h ` 2.g.N.N.l.@.M - i 9 y 9 y 9 B.B.B.B.",
"B.B.B.9 y y y y 9 u > b t.N.N.N.s.c.N.N.l.D - i 9 y 9 y 9 B.B.B.",
"B.B.9 y y y y y y 9 h 0.N.N.o.B h b ` c.N.s.b 4 u y y y y 9 B.B.",
"B.B.9 y y y y 9 i & / N.N.o.@ > 9 4 @ E N.N.o.% i 9 y 9 y 9 B.B.",
"B.9 y y y y y y u > >.N.c.b 4 p 9 9 i > 2.N.r.h 9 u y y y y 9 B.",
"B.9 y y y y y y 9 9 9.N.0.9 y u y 9 y - R +.R i 9 y y y y y 9 B.",
"B.9 y y y y y y y 9 7.N.2.4 y u y y y y > % * 9 y 9 y y y y 9 B.",
"9 y y y y y y 9 u > =.N.4.9 i i i i i 9 y i i y 9 y y y y y y 9 ",
"9 y y y y y 9 y y o ! N.t.4 % - - - - 9 y 9 i u y y y y y y y 9 ",
"9 y y y y y y 4 b J _ N.N.E D L L L F u 9 y y y y y y y y y y 9 ",
"9 y y y y y i & E N.N.N.N.N.N.N.N.N.i.i 9 y y y y y y y y y y 9 ",
"9 y y y y y y - L 0.2.p.N.s.2.7.4.7.-.i 9 y y y y y y y y y y 9 ",
"9 y y y y y 9 y 9 y % E N.$.% 9 9 9 4 9 y 9 y y y y y y y y y 9 ",
"9 y y y y y y 9 y i - J N.&.- u y y y y y y y y y y y y y y y 9 ",
"9 y y y y y y 9 y i & Y N.o.- i y y y y y y y y y y y y y y y 9 ",
"B.9 y y y y y y 9 i & [ N.E & u y y y y y y y y y y y y y y 9 B.",
"B.9 y y y y y 9 u 9 u t.N.b 9 i i u y y y y i y 9 y y y y y 9 B.",
"B.9 y y y y 9 y 9 % } N._ o > % - - 9 y y 4 - 9 y 9 y y y y 9 B.",
"B.B.9 y y y y 9 9 [ N.j.o.@.$. .R V h 4 - v Y y 9 y y y y 9 B.B.",
"B.B.9 y y u i - ^ N.c.N.N.N.N.N.N.N.s.2.,.s.N.V > u y y 9 9 B.B.",
"B.B.B.9 y 9 u > B N.N.4.} ( [ @.r.N.N.N.N.N.N.( & i y y 9 B.B.B.",
"B.B.B.B.9 y y y 9 ` F > % w r.E % 2.N.$.:.o.G h y y y 9 B.B.B.B.",
"B.B.B.B.B.9 y 9 u - - i 9 x N.o.. =.i.& - & - 9 y 9 9 B.B.B.B.B.",
"B.B.B.B.B.B.9 9 y i i u > v N.o.o :.i.9 u i i u 9 9 B.B.B.B.B.B.",
"B.B.B.B.B.B.B.9 9 y u y y i D B > A A 9 y u u 9 9 B.B.B.B.B.B.B.",
"B.B.B.B.B.B.B.B.B.9 9 9 y 9 - 4 i > - 9 9 9 9 B.B.B.B.B.B.B.B.B.",
"B.B.B.B.B.B.B.B.B.B.B.B.9 y i u u u i 9 B.B.B.B.B.B.B.B.B.B.B.B."
};
