/* XPM */
static char *_d950f20d794436de1afbc21f19f5251[] = {
/* columns rows colors chars-per-pixel */
"64 64 211 2 ",
"   c #4C88C9",
".  c #4E89C9",
"X  c #4F8ACA",
"o  c #508ACA",
"O  c #518BCA",
"+  c #548DCB",
"@  c #558ECB",
"#  c #558ECC",
"$  c #568ECC",
"%  c #578FCC",
"&  c #588FCC",
"*  c #5890CC",
"=  c #5990CC",
"-  c #5990CD",
";  c #5A91CD",
":  c #5B91CD",
">  c #5B92CD",
",  c #5C92CD",
"<  c #5C92CE",
"1  c #5D93CE",
"2  c #5E93CE",
"3  c #5E94CE",
"4  c #5F94CE",
"5  c #5F94CF",
"6  c #6095CF",
"7  c #6195CF",
"8  c #6196CF",
"9  c #6296CF",
"0  c #6396CF",
"q  c #6297CF",
"w  c #6397CF",
"e  c #6296D0",
"r  c #6396D0",
"t  c #6297D0",
"y  c #6397D0",
"u  c #6497D0",
"i  c #6498D0",
"p  c #6598D0",
"a  c #6599D0",
"s  c #6699D0",
"d  c #6699D1",
"f  c #6799D1",
"g  c #679AD1",
"h  c #689AD1",
"j  c #699AD1",
"k  c #699BD1",
"l  c #6A9BD2",
"z  c #6A9CD2",
"x  c #6B9CD2",
"c  c #6C9DD2",
"v  c #6D9DD2",
"b  c #6D9ED3",
"n  c #6E9ED3",
"m  c #6F9ED3",
"M  c #6F9FD3",
"N  c #709FD3",
"B  c #71A0D4",
"V  c #72A1D4",
"C  c #73A1D4",
"Z  c #73A2D4",
"A  c #74A2D5",
"S  c #75A3D5",
"D  c #76A3D5",
"F  c #77A4D5",
"G  c #77A4D6",
"H  c #78A5D6",
"J  c #79A5D6",
"K  c #79A6D6",
"L  c #7AA6D6",
"P  c #7BA6D7",
"I  c #7BA7D7",
"U  c #7CA8D7",
"Y  c #7EA8D7",
"T  c #7EA9D8",
"R  c #7FA9D8",
"E  c #81ABD9",
"W  c #82ABD9",
"Q  c #83ACD9",
"!  c #84ADD9",
"~  c #86AEDA",
"^  c #87AEDA",
"/  c #88AFDB",
"(  c #8CB2DC",
")  c #8DB3DC",
"_  c #8EB3DC",
"`  c #92B6DE",
"'  c #93B7DE",
"]  c #94B7DE",
"[  c #95B8DE",
"{  c #95B8DF",
"}  c #97B9DF",
"|  c #97BADF",
" . c #98BADF",
".. c #98BAE0",
"X. c #99BBE0",
"o. c #9ABBE0",
"O. c #9ABCE0",
"+. c #9CBDE0",
"@. c #9DBEE1",
"#. c #9EBEE1",
"$. c #9FBFE1",
"%. c #9FBFE2",
"&. c #A1C0E2",
"*. c #A2C1E2",
"=. c #A2C1E3",
"-. c #A3C1E3",
";. c #A3C2E3",
":. c #A6C3E4",
">. c #A7C4E4",
",. c #A8C4E4",
"<. c #A9C6E5",
"1. c #AAC6E5",
"2. c #ABC7E5",
"3. c #ACC8E6",
"4. c #ADC8E6",
"5. c #AEC9E6",
"6. c #AFCAE6",
"7. c #AFCAE7",
"8. c #B0CAE7",
"9. c #B1CBE7",
"0. c #B2CBE7",
"q. c #B3CCE7",
"w. c #B4CDE8",
"e. c #B5CDE8",
"r. c #B5CEE8",
"t. c #B6CEE8",
"y. c #B6CEE9",
"u. c #BBD2EA",
"i. c #BCD2EA",
"p. c #BDD3EB",
"a. c #BED3EB",
"s. c #BFD4EB",
"d. c #C0D5EB",
"f. c #C1D5EC",
"g. c #C2D6EC",
"h. c #C3D7EC",
"j. c #C4D8ED",
"k. c #C5D8ED",
"l. c #C6D9ED",
"z. c #C7D9ED",
"x. c #C7D9EE",
"c. c #C8DAEE",
"v. c #C9DAEE",
"b. c #C9DBEE",
"n. c #CADBEE",
"m. c #CADBEF",
"M. c #CADCEF",
"N. c #CBDCEF",
"B. c #CCDDEF",
"V. c #CDDDEF",
"C. c #CDDEF0",
"Z. c #CFDFF0",
"A. c #D0DFF0",
"S. c #D0E0F0",
"D. c #D1E0F1",
"F. c #D2E1F1",
"G. c #D3E1F1",
"H. c #D3E2F1",
"J. c #D4E2F1",
"K. c #D4E2F2",
"L. c #D5E3F2",
"P. c #D6E3F2",
"I. c #D6E4F2",
"U. c #D7E4F2",
"Y. c #D9E5F3",
"T. c #D9E6F3",
"R. c #DAE6F3",
"E. c #DBE7F3",
"W. c #DDE8F4",
"Q. c #DFE9F5",
"!. c #DFEAF5",
"~. c #E2EBF6",
"^. c #E2ECF6",
"/. c #E3ECF6",
"(. c #E6EEF7",
"). c #E7EFF7",
"_. c #E8EFF7",
"`. c #E8EFF8",
"'. c #E8F0F8",
"]. c #EAF1F8",
"[. c #EBF2F9",
"{. c #ECF2F9",
"}. c #EEF3F9",
"|. c #EEF4FA",
" X c #EFF4FA",
".X c #F0F5FA",
"XX c #F1F6FA",
"oX c #F2F6FB",
"OX c #F3F7FB",
"+X c #F4F7FB",
"@X c #F6F8FC",
"#X c #F6F9FC",
"$X c #F7F9FC",
"%X c #F7FAFC",
"&X c #F8FAFC",
"*X c #F8FAFD",
"=X c #F9FBFD",
"-X c #FAFBFD",
";X c #FAFCFD",
":X c #FBFCFD",
">X c #FBFDFD",
",X c #FBFCFE",
"<X c #FCFDFD",
"1X c #FCFDFE",
"2X c #FDFDFE",
"3X c #FDFEFE",
"4X c #FEFEFE",
"5X c #FEFEFF",
"6X c #FEFFFF",
"7X c gray100",
"8X c None",
/* pixels */
"8X8X8X8X8X8X8X8X8X8X8X8X8X8X8X8X8X8X8X8X8X8X8X8X8X8X9 9 9 9 9 9 9 9 9 9 9 9 8X8X8X8X8X8X8X8X8X8X8X8X8X8X8X8X8X8X8X8X8X8X8X8X8X8X",
"8X8X8X8X8X8X8X8X8X8X8X8X8X8X8X8X8X8X8X8X8X8X9 9 9 9 9 y y y y y y y y y y y 9 9 9 9 8X8X8X8X8X8X8X8X8X8X8X8X8X8X8X8X8X8X8X8X8X8X",
"8X8X8X8X8X8X8X8X8X8X8X8X8X8X8X8X8X8X8X8X9 9 y y y y y 9 5 5 5 9 y y 9 5 2 9 y y y w 9 9 8X8X8X8X8X8X8X8X8X8X8X8X8X8X8X8X8X8X8X8X",
"8X8X8X8X8X8X8X8X8X8X8X8X8X8X8X8X8X9 9 9 y y y 9 y y 9 i M m m w 9 9 i V M x 9 y w y y y 9 9 9 8X8X8X8X8X8X8X8X8X8X8X8X8X8X8X8X8X",
"8X8X8X8X8X8X8X8X8X8X8X8X8X8X8X8X9 9 y y 9 y y y y y 2 L oX#X.XV y = ] 7X7XC.= i y y y 9 y y 9 9 8X8X8X8X8X8X8X8X8X8X8X8X8X8X8X8X",
"8X8X8X8X8X8X8X8X8X8X8X8X8X8X9 9 y y 9 y y y y y y u = L 7X7X=XA y = | 7X7XG.= u y y y y y 9 y y 9 9 8X8X8X8X8X8X8X8X8X8X8X8X8X8X",
"8X8X8X8X8X8X8X8X8X8X8X8X8X9 y y 9 y y y y y y y y u 2 L :X7X#XB 2 = | 7X7XG.2 i y y y y y y y 9 y y 9 8X8X8X8X8X8X8X8X8X8X8X8X8X",
"8X8X8X8X8X8X8X8X8X8X8X9 9 y 9 y y y y y y y y y y u 2 G =X7X=XA y 2 X.7X7XL.= u y y y y y y y y y y y 9 9 8X8X8X8X8X8X8X8X8X8X8X",
"8X8X8X8X8X8X8X8X8X8X9 y y 9 y y y y y y y y y y y u 2 L 7X$XL.p &   ] 7X7XL.2 w w u u y y y y y y y 9 y y 9 8X8X8X8X8X8X8X8X8X8X",
"8X8X8X8X8X8X8X8X8X9 9 y 9 y y y y y y y y y y y 9 w 9 k ~ m V ~ ' ( e.7X7XA.O 2 i u 9 y y y y y y y y 9 y y 9 8X8X8X8X8X8X8X8X8X",
"8X8X8X8X8X8X8X8X9 9 u 9 y y y y y y y y y y 9 y u 2 2 ~ e./.=X7X7X7X7X7X7X.X1.N % 9 u 9 y y y y y y y y 9 y 9 9 8X8X8X8X8X8X8X8X",
"8X8X8X8X8X8X8X9 9 y 9 y y y y y y y y y y 9 y y % E U.7X7X7X7X:X:X:X7X7X7X7X7X$X0.9 5 i 9 y y y y y y y y 9 y y 9 8X8X8X8X8X8X8X",
"8X8X8X8X8X8X8X9 y 9 y y y y y y y y y y 9 9 w = 4.7X7X=X=X7X=X7X7X7X7X7X7X7X7X:X7XU.m 2 i 9 y y y y y y y y 9 y 9 8X8X8X8X8X8X8X",
"8X8X8X8X8X8X9 y 9 y y y y y y y y y y y u 9 2 i.7X7X:X7X7X7X7X7X X}.=X7X7X:X<X7X7X7X/.m 5 u 9 y y y y y y y y 9 y 9 8X8X8X8X8X8X",
"8X8X8X8X8X9 y 9 y y y y y y y y y y y 9 u & 1.7X&X7X7X:X7X~.+.L x k B ' B.7X7X7X7X=X7XL.5 9 y i y y y y y y y y 9 y 9 8X8X8X8X8X",
"8X8X8X8X8X9 y 9 y y y y y y y y y y y y 2 R &X7X7X7X7X7X0.9 = 2 5 9 5 = = _  X7X7X7X:X7X;.& i 9 y y y y y y y y y y 9 8X8X8X8X8X",
"8X8X8X8X9 y 9 y y y y y y y y y y y y i = M.7X7X7X=X7X7.+ 9 i u y y y u u % L .X7X:X7X7X[.k y u y y y y y y y y y 9 y 9 8X8X8X8X",
"8X8X8X9 9 y y y y y y y y y y y y y u 2 G =X7X7X7X7XE.2 u 9 9 y y y y 9 y i % | 7X7X7X=X7XX.& i y y y y y y y y y y y 9 9 8X8X8X",
"8X8X8X9 y 9 y y y y y y y y y y y y u = +.7X=X7X7X7XX.= i 9 y y y y y y y y u 2 U.7X=X7X7Xc.& i y y y y y y y y y y 9 y 9 8X8X8X",
"8X8X8X9 y y y y y y y y y y y y y y i & i.7X=X7X7X#XB 5 u y y y y y y y y y u % ;.7X7X7X7X Xk 9 y y y y y y y y y y y y 9 8X8X8X",
"8X8X9 y 9 y y y y y y y y y y y u u i = A.7X7X:X7X!.9 y y y y y y y y y y y u 2 Y 7X7X+X/.G.V 5 y y y y y y y y y y y 9 y 9 8X8X",
"8X8X9 y y y y y y y y y y y y y y i i = U.7X7X:X7XB.= y y y y y y y y y y y y 9 k ' E N i = 9 9 9 y y y y y y y y y y y y 9 8X8X",
"8X9 y y y y y y y y y y y y y y y y u 2 G.7X7X=X7Xf.& i y y y y y y y y y y 9 y 9 = 2 2 9 y y 9 y y y y y y y y y y y y y y 9 8X",
"8X9 y 9 y y y y y y y y y y y y y y i = c.7X7X:X7Xi.& i y y y y y y y y y y y 9 u i i 9 y y y y y y y y y y y y y y y y 9 y 9 8X",
"8X9 y 9 y y y y y y y y y y y y y y i & e.7X7X=X7Xd.& u y y y y y y y y y y y y y y y y y y y y y y y y y y y y y y y y 9 y 9 8X",
"8X9 y y y y y y y y y y y y y y y y i = ] 7X:X7X7Xc.= u y u y y y y y u y y y y y y y y y y y y y y y y y y y y y y y y y y 9 8X",
"9 9 y y y y y y y y y y y y y y u u u 5 A =X7X7X7XR.2 u u u u w y u u u y y y y y y y y y y y y y y y y y y y y y y y y y y y 9 ",
"9 y 9 y y y y y y y y y y y y y y i i i 9 W.7X:X7X}.k u i i i p u i i i i i 9 y y y y y y y y y y y y y y y y y y y y y y 9 y 9 ",
"9 y 9 y y y y y y y y y y y y 9 y = % =   7.7X=X7X7XL O = = & & & & % * & = y 9 9 y y y y y y y y y y y y y y y y y y y y 9 y 9 ",
"9 y 9 y y y y y y y y y y y y y 5 ,.k.s.i.L.7X7X7X7XU.i.f.f.f.f.f.f.f.s.k.0.9 y y y y y y y y y y y y y y y y y y y y y y 9 y 9 ",
"9 y 9 y y y y y y y y y y y y u 2 L.7X7X7X7X7X7X7X7X7X7X7X7X7X7X7X7X7X7X7X~.9 y y y y y y y y y y y y y y y y y y y y y y 9 y 9 ",
"9 y 9 y y y y y y y y y y y y i = G.7X=X=X7X:X7X7X7X:X=X=X=X=X=X=X=X=X#X7X!.5 y y y y y y y y y y y y y y y y y y y y y y 9 y 9 ",
"9 y 9 y y y y y y y y y y y y y 2 L.7X7X7X7X7X7X7X7X7X7X7X7X7X7X7X7X7X7X7X~.9 y y y y y y y y y y y y y y y y y y y y y y 9 y 9 ",
"9 y 9 y y y y y y y y y y y y y 2 4.B.c.c.k.c.7X7X7X7XU.k.c.c.v.c.c.v.v.M.e.9 y y y y y y y y y y y y y y y y y y y y y y 9 y 9 ",
"9 y 9 y y y y y y y y y y y y 9 9 = = = = = 2 /.7X=X7X]   2 = = = = = = = = y 9 9 y y y y y y y y y y y y y y y y y y y y 9 y 9 ",
"9 y 9 y y y y y y y y y y y y y y i i i i i = G.7X:X7X;.= i i i i i i i i y 9 y y y y y y y y y y y y y y y y y y y y y y 9 y 9 ",
"9 y 9 u y y y y y y y y y y y y u y y y u i & f.7X=X7X+.& i u y y y y y i y y y y y y y y y y y y y y y y y y y y y y y y 9 y 9 ",
"9 9 y y y y y y y y y y y y y y y y y y u i & i.7X:X7X .= i y y y y y y y y y y y y y y y y y y y y y y y y y y y y y y y y y 9 ",
"8X9 y y y y y y y y y y y y y y y y y y y i * k.7X=X7X( = y y y y y y y y y y y y y y y y y y y y y y y y y y y y y y y y y 9 8X",
"8X9 y 9 y y y y y y y y y y y y y y y y i i = G.7X7X7XL 2 y y y y y y y y y y y y y y y y y y y y y y y y y y y y y y y 9 y 9 8X",
"8X9 y 9 y y y y y y y y y y y y y y y y y 9 i }.7X7X}.k y y y y y y y y y y y y y y y y y y y y y y y y y y y y y y y y 9 y 9 8X",
"8X9 y y y y y y y y y y y y y y y y y y i 2 E 7X:X7XB.= y y y y y y y y y y y y y y y y y y y y y y y y y y y y y y y y y y 9 8X",
"8X8X9 y y y y y y y y y y y y y y y y 9 p % u.7X:X7XX.= i y y y y y y y y y y y y y y y y y y y y y y y y y y y y y y y y 9 8X8X",
"8X8X9 y 9 y y y y y y y y y y y y y 9 i 2 A =X7X7X[.i 9 y y y y y y y y y y y y y y y y y y y y y y y y y y y y y y y 9 y 9 8X8X",
"8X8X8X9 y y y y y y y y y y y y y 9 y 9 = G.7X:X7X .2 k i i p 9 y y y y y y y y y y y 9 y y 9 y y y y y y y y y y y y y 9 8X8X8X",
"8X8X8X9 y 9 y y y y y y y y y y 9 y i % 0.7X:X7XL.% = = = = = 5 u i i i y y y y y y y u i 9 y 9 y y y y y y y y y y 9 y 9 8X8X8X",
"8X8X8X9 9 y y y y y y y y y y 9 y 9 % >.7X:X7X:X~ L |  .+.| ~ m y = = = 5 y y i i i y = = i 9 y 9 y y y y y y y y y y y 9 8X8X8X",
"8X8X8X8X9 y 9 y y y y y y y 9 y 5 9 u.7X7X7X7X#X].7X7X7X7X7X7X&X~.f.;.~ B 9 = % & = u ~ M.G.5 y y y y y y y y y y 9 y 9 8X8X8X8X",
"8X8X8X8X8X9 y y y y y y y y y 9 N ~.7X:X7X7X7X7X7X7X:X&X:X:X7X7X7X7X&X7X#X~.M.0.0.k./.7X7X7XP 2 y u y y y y y y y y 9 8X8X8X8X8X",
"8X8X8X8X8X9 y 9 y y y y y y y 9 i /.7X7X7X7X7X=X&X7X7X7X7X7X7X=X&X:X7X7X7X7X7X7X7X7X7X7X=X7X,.* u 9 y y y y y y 9 y 9 8X8X8X8X8X",
"8X8X8X8X8X8X9 y 9 y y y y y 9 y % :.7X7X:X7X7X7X7X&X]._._.+X7X7X7X<X7X7X7X7X:X7X:X:X:X7X:X7X/.y 9 y y y y y y 9 y 9 8X8X8X8X8X8X",
"8X8X8X8X8X8X8X9 y 9 y y y y y y 9 B +X7X7X:XU.7.~ V p p N m L :.G.$X7X:X7X7X:X7X:X7X7X7X7X7X.XB 5 y y y y y 9 y 9 8X8X8X8X8X8X8X",
"8X8X8X8X8X8X8X9 9 y 9 y y y y 9 i = c.7Xi.U 2 & 2 5 = L  X[.k.9 = x t.7X7X7X7X7X7X7X7X$XL.+.x 9 9 9 y y y 9 y y 9 8X8X8X8X8X8X8X",
"8X8X8X8X8X8X8X8X9 9 y 9 y y y y y 2 E E % 2 y i p p 2 G :X7X=XG 9 % ' 7X7X!.] ,.2.;.( M = = 5 y 9 y y y 9 y 9 9 8X8X8X8X8X8X8X8X",
"8X8X8X8X8X8X8X8X8X9 9 y 9 y y y 9 y 2 2 u u y 9 9 w 2 L :X7X#XB 9 =  .7X7XA.+ = * = = 5 y u y 9 y y y 9 y 9 9 8X8X8X8X8X8X8X8X8X",
"8X8X8X8X8X8X8X8X8X8X9 9 y 9 y y y 9 y u 9 u y y 9 p 2 L :X7X=XB 9 =  .7X7XL.2 i i i i y y 9 y y y y 9 y w 9 8X8X8X8X8X8X8X8X8X8X",
"8X8X8X8X8X8X8X8X8X8X8X9 9 y 9 y y y y y y y y y y i 2 G =X7X=XB 9 = | 7X7XG.= u y y y y y y y y y 9 y 9 9 8X8X8X8X8X8X8X8X8X8X8X",
"8X8X8X8X8X8X8X8X8X8X8X8X8X9 y y 9 y y y y y y y y i = L 7X7X=XB y = X.7X7XL.2 u y y y y y y y 9 y y 9 8X8X8X8X8X8X8X8X8X8X8X8X8X",
"8X8X8X8X8X8X8X8X8X8X8X8X8X8X9 9 y y 9 y y y y y y y 5 m 4.7.,.m y 2 L 0.0.X.5 9 y y y y y 9 y y 9 9 8X8X8X8X8X8X8X8X8X8X8X8X8X8X",
"8X8X8X8X8X8X8X8X8X8X8X8X8X8X8X8X9 9 y y 9 y y y y 9 9 9 % % & 9 y y 5 % = = y 9 y y y 9 y y 9 9 8X8X8X8X8X8X8X8X8X8X8X8X8X8X8X8X",
"8X8X8X8X8X8X8X8X8X8X8X8X8X8X8X8X8X9 9 9 y y y 9 9 y 9 y i i i u 9 9 y i i i 9 y 9 y y y 9 9 9 8X8X8X8X8X8X8X8X8X8X8X8X8X8X8X8X8X",
"8X8X8X8X8X8X8X8X8X8X8X8X8X8X8X8X8X8X8X8X9 9 y y y y y 9 9 9 w w 9 9 9 9 y y y y y y 9 9 8X8X8X8X8X8X8X8X8X8X8X8X8X8X8X8X8X8X8X8X",
"8X8X8X8X8X8X8X8X8X8X8X8X8X8X8X8X8X8X8X8X8X8X9 9 9 9 y y y y y y y y y y y 9 9 9 9 9 8X8X8X8X8X8X8X8X8X8X8X8X8X8X8X8X8X8X8X8X8X8X",
"8X8X8X8X8X8X8X8X8X8X8X8X8X8X8X8X8X8X8X8X8X8X8X8X8X8X9 9 9 9 9 9 9 9 9 9 9 9 8X8X8X8X8X8X8X8X8X8X8X8X8X8X8X8X8X8X8X8X8X8X8X8X8X8X"
};
