/* XPM */
static char *cbee6ec8c2f042d3baa9c99c9e4b66b2[] = {
/* columns rows colors chars-per-pixel */
"128 128 43 1 ",
"  c #4E89C9",
". c #578FCC",
"X c #588FCC",
"o c #5B92CD",
"O c #6296CF",
"+ c #6397D0",
"@ c #6598D0",
"# c #6B9CD2",
"$ c #709FD3",
"% c #73A1D4",
"& c #7AA6D6",
"* c #7EA8D7",
"= c #7FAAD8",
"- c #85ADDA",
"; c #88AFDA",
": c #8BB2DC",
"> c #93B7DE",
", c #96B9DF",
"< c #98BADF",
"1 c #9DBDE1",
"2 c #A0BFE2",
"3 c #A5C3E3",
"4 c #ABC6E5",
"5 c #ADC8E6",
"6 c #B2CBE7",
"7 c #B6CEE8",
"8 c #B8CFE9",
"9 c #BBD2EA",
"0 c #C2D6EC",
"q c #C6D9ED",
"w c #CBDCEF",
"e c #CEDEF0",
"r c #D0DFF0",
"t c #D4E2F1",
"y c #DAE6F3",
"u c #DDE8F4",
"i c #E5EDF6",
"p c #E8EFF8",
"a c #EDF2F9",
"s c #F1F6FA",
"d c #F6F8FC",
"f c #FEFEFE",
"g c None",
/* pixels */
"ggggggggggggggggggggggggggggggggggggggggggggggggggggggggOOOOOOOOOOOOOOOOgggggggggggggggggggggggggggggggggggggggggggggggggggggggg",
"ggggggggggggggggggggggggggggggggggggggggggggggggggOOOOOOO+++++++++++++OOOOOOOOgggggggggggggggggggggggggggggggggggggggggggggggggg",
"ggggggggggggggggggggggggggggggggggggggggggggggOOOOO++++++OOOOOOOOOOOOO+++++++OOOOOgggggggggggggggggggggggggggggggggggggggggggggg",
"gggggggggggggggggggggggggggggggggggggggggggOOO++++++OOO++++++++++++++++++OOOO++++OOOOggggggggggggggggggggggggggggggggggggggggggg",
"ggggggggggggggggggggggggggggggggggggggggOOO++++OO++++++++++++OO@+++++++++++++++OO++++OOOgggggggggggggggggggggggggggggggggggggggg",
"ggggggggggggggggggggggggggggggggggggggOOO+++OO++++++++O++++++@OO++++O+++++++O+++++OOO++OOOgggggggggggggggggggggggggggggggggggggg",
"ggggggggggggggggggggggggggggggggggggOO+++OO++++++++++O+OoOoooOO@O++O+oOooOoO+O++++++++O+++OOgggggggggggggggggggggggggggggggggggg",
"ggggggggggggggggggggggggggggggggggOO+++OO++++++++++++O@+%%%%%%@O++@OO$%%%%%#O+O+++++++++OO++OOgggggggggggggggggggggggggggggggggg",
"ggggggggggggggggggggggggggggggggOO++OO++++++++++++++++o-fddddd&o++++oqfsdsf4.+O+++++++++++O+++OOgggggggggggggggggggggggggggggggg",
"ggggggggggggggggggggggggggggggOO++OO++++++++++++++++++o:ffffff&o++++owfffff4.+O+++++++++++++OO++OOgggggggggggggggggggggggggggggg",
"gggggggggggggggggggggggggggggOO++O++++++++++++++++++++o;ffffff&o++++owfffff4o+O+++++++++++++++OO+OOggggggggggggggggggggggggggggg",
"gggggggggggggggggggggggggggOO++O++++++++++++++++++++O@o-ffffff&o++++owfffff4X+O+++++++++++++++++O++OOggggggggggggggggggggggggggg",
"ggggggggggggggggggggggggggOO+O++++++++++++++++++++++++o-ffffff&o+++#oqfffff4X+@@+++++++++++++++++OO+OOgggggggggggggggggggggggggg",
"gggggggggggggggggggggggggO++O+++++++++++++++++++++++++o-fffffd&O++++oefffff4.+O++++++++++++++++++++O++Oggggggggggggggggggggggggg",
"gggggggggggggggggggggggOO++O++++++++++++++++++++++++++o;ffffff&o++++oqfffff5.@O+++++++++++++++++++++OO+OOggggggggggggggggggggggg",
"ggggggggggggggggggggggOO+O++++++++++++++++++++++++++++o;fffffd&o++++owfffdf5.@O+++++++++++++++++++++++O+OOgggggggggggggggggggggg",
"gggggggggggggggggggggO++O++++++++++++++++++++++++++++@X-ffffff&o+@O+oefffdf4X+O++++++++++++++++++++++++O++Oggggggggggggggggggggg",
"ggggggggggggggggggggO++O+++++++++++++++++++++++++++++@o:fffat7%+@@@#owfffff5o+O+++++++++++++++++++++++++O+OOgggggggggggggggggggg",
"gggggggggggggggggggOO+O++++++++++++++++++++++++++++++@o-y4*+X ..XXXX qfffff5X@O++++++++++++++++++++++++++O++Oggggggggggggggggggg",
"ggggggggggggggggggO++O++++++++++++++++++++++++++++++O+@@X .O%:1590009ifffff4 #@OO+++++++++++++++++++++++++OO+Ogggggggggggggggggg",
"gggggggggggggggggO++O+++++++++++++++++++++++++++++O+@@oX%<qidffffffffffffffq%o.++OO@+++++++++++++++++++++++O+OOggggggggggggggggg",
"ggggggggggggggggO++O+++++++++++++++++++++++++++++O+@oo:qdfffffffffffffffffffdt>Oo@@@++++++++++++++++++++++++O+OOgggggggggggggggg",
"gggggggggggggggOO+O++++++++++++++++++++++++++++O+@oX:ufffffffffffffffffffffffffi>oo+O++++++++++++++++++++++++O++Oggggggggggggggg",
"ggggggggggggggOO+O++++++++++++++++++++++++++++O+@X%rfffdfffffffffffffffffffffffffe$o++O+++++++++++++++++++++++O+OOgggggggggggggg",
"ggggggggggggggO+O++++++++++++++++++++++++++++O++X<sfffffffffffffffffffffffffffffffs:.++O+++++++++++++++++++++++O+Ogggggggggggggg",
"gggggggggggggO+O++++++++++++++++++++++++++++O+Oo9ffffffffffffffffffffffffffffffffdff3X++O+++++++++++++++++++++++O+Oggggggggggggg",
"ggggggggggggO++++++++++++++++++++++++++++++@+Oowfffffffffffffffffffffffffffffffffffff3.OO++++++++++++++++++++++++@+Ogggggggggggg",
"gggggggggggOO+O+++++++++++++++++++++++++++O++oqfffffffffffffffffsaiadfffffffffffffffff1X+O+++++++++++++++++++++++O+OOggggggggggg",
"gggggggggggO+O++++++++++++++++++++++++++++O+X7ffffffffffffffa0<*$+++%:4yfffffffffffffff-o+OO++++++++++++++++++++++O+Oggggggggggg",
"ggggggggggO++++++++++++++++++++++++++++++O@o,fffffffffffffa3#oooO+OOoooo-qfffffffffffffi#O@@+++++++++++++++++++++++O+Ogggggggggg",
"gggggggggOO+O@++++++++++++++++++++++++++@@o%sffffffffffff0#oO++++++++++@oX-uffffffffffff8X@@+++++++++++++++++++++++++OOggggggggg",
"gggggggggO+O++++++++++++++++++++++++++++O@X9ffffffffffff3oo++O++++++++@@O@XO0fffffffffffd*o+O+++++++++++++++++++++++O+Oggggggggg",
"ggggggggO++++++++++++++++++++++++++++++++o*ffffffffffff1X++@+++++++++++++O@Oo9fffffffffffqo@O++++++++++++++++++++++++O+Ogggggggg",
"ggggggggO+O+++++++++++++++++++++++++++++@X9fffffffffff9X@OOO++++++++++++++O+Ooefffffffffff&o+++++++++++++++++++++++++O+Ogggggggg",
"gggggggO+O++++++++++++++++++++++++++++++O$sffffffffffi+O+O@O+++++++++++++++O+o$affffffffff6X@O++++++++++++++++++++++++O+Oggggggg",
"gggggggO+O++++++++++++++++++++++++++@@@+X<fffffffffff1o+O++++++++++++++++++OO#X<ffffffffffa@O+++++++++++++++++++++++++O+Oggggggg",
"ggggggO+++++++++++++++++++++++++++++++++oqffffffffffa@O++++++++++++++++++++++++ouffffffffff-o@+++++++++++++++++++++++++++Ogggggg",
"ggggggO+O+++++++++++++++++++++++++++++++Oiffffffffff7o+O+++++++++++++++++++++O+o1ffffffffff6o++++++++++++++++++++++++++++Ogggggg",
"gggggO+O+++++++++++++++++++++++++++++++o%fffffffffff-o++++++++++++++++++++++++OO$sfffffffffyo+++++++++++++++++++++++++++++Oggggg",
"gggggO+O+++++++++++++++++++++++++++++++o:ffffffffffa#O+++++++++++++++++++++++++@owfffffffffs$o++++++++++++++++++++++++++O+Oggggg",
"ggggOO+O++++++++++++++++++++++++++++++@.1ffffffffdfto+++++++++++++++++++++++++@@X3ffffffffff-o@+++++++++++++++++++++++++++OOgggg",
"ggggO+O++++++++++++++++++++++++++++++O@X4fdffffffff9o+O+++++++++++++++++++++++++o-fffffauw61$O+++++++++++++++++++++++++++O+Ogggg",
"ggggO+O++++++++++++++++++++++++++++++O@X6ffffffffff3X@O+++++++++++++++++++++++++o%r93>&#+XX.o@O++++++++++++++++++++++++++O+Ogggg",
"gggO+++++++++++++++++++++++++++++++++O@X6ffffffffff>o@+++++++++++++++++++++++++O+OoXXooo+@+@+++++++++++++++++++++++++++++++OOggg",
"gggO+O+++++++++++++++++++++++++++++++O+X6ffffffffff-o#++++++++++++++++++++++++++@+++@+++++++++++++++++++++++++++++++++++++O+Oggg",
"gggO+O+++++++++++++++++++++++++++++++O+o4fdffffffff-o+++++++++++++++++++++++++++O++OOO++++++++++++++++++++++++++++++++++++O+Oggg",
"ggOO+++++++++++++++++++++++++++++++++++.1ffffffffff*o@++++++++++++++++++++++++++++++++++++++++++++++++++++++++++++++++++++++OOgg",
"ggO+O++++++++++++++++++++++++++++++++++o>ffffffffff*o@+++++++++++++++++++++++++++++++++++++++++++++++++++++++++++++++++++++O+Ogg",
"ggO+O+++++++++++++++++++++++++++++++++@o&ffffffffff-oO+++++++++++++++++++++++++++++++++++++++++++++++++++++++++++++++++++++O+Ogg",
"ggO++++++++++++++++++++++++++++++++++++O#sfffffffff-oO+++++++++++++++++++++++++++++++++++++++++++++++++++++++++++++++++++++++Ogg",
"gOO+++++++++++++++++++++++++++++++++++++oyfffffffff>o+++++++++++++++++++++++++++++++++++++++++++++++++++++++++++++++++++++++++Og",
"gO+O++++++++++++++++++++++++++++++++++O+.7fffffffff1o+++++++++++++++++++++++++++++++++++++++++++++++++++++++++++++++++++++++O+Og",
"gO+O++++++++++++++++++++++++++++++++++++o>fffffffff6X@OO++++++++++++++++++++++++++++++++++++++++++++++++++++++++++++++++++++O+Og",
"gO+O++++++++++++++++++++++++++++++++++++O%dffffffffqX@++++++++++++++++++++++++++++++++++++++++++++++++++++++++++++++++++++++O+Og",
"gO+O+++++++++++++++++++++++++++++++++++++oyffffffdfuo+++++++++++++++++++++++++++++++++++++++++++++++++++++++++++++++++++++++O+Og",
"gO+++++++++++++++++++++++++++++++++++++@+X5ffffffffs$O++++++++++++++++++++++++++++++++++++++++++++++++++++++++++++++++++++++++Og",
"OO+++++++++++++++++++++++++++++++O+@@@@O+o:fffffffff-o+++++#++++++++@@@@+@++O+++++++++++++++++++++++++++++++++++++++++++++++++OO",
"O+++++++++++++++++++++++++++++++O+oooooooooaffffffff3 oooooooooooooooooooooo+O+++++++++++++++++++++++++++++++++++++++++++++++O+O",
"O+O++++++++++++++++++++++++++++++O%:-----:-tffffffffy-:---------:----------&o+@++++++++++++++++++++++++++++++++++++++++++++++O+O",
"O+O++++++++++++++++++++++++++++O@X5ffffffffffffffffffffffffffffffffffffffffeo@+++++++++++++++++++++++++++++++++++++++++++++++O+O",
"O+O++++++++++++++++++++++++++++O@.5ffffffffffffffffffffffffffffffffffffffffqo++++++++++++++++++++++++++++++++++++++++++++++++O+O",
"O+O++++++++++++++++++++++++++++O@.5ffffffffffffffffffffffffffffffffffffffffwo++++++++++++++++++++++++++++++++++++++++++++++++O+O",
"O+O++++++++++++++++++++++++++++O@X5fdffffffffffffffffffffffffffffffffffffffwo++++++++++++++++++++++++++++++++++++++++++++++++O+O",
"O++++++++++++++++++++++++++++++O@.5ffffffffffffffffffffffffffffffffffffffdfwo++++++++++++++++++++++++++++++++++++++++++++++++O+O",
"O+O++++++++++++++++++++++++++++O+.5fdffffffffffffffffffffffffffffffffffffdfwo++++++++++++++++++++++++++++++++++++++++++++++++++O",
"++O++++++++++++++++++++++++++++O+o4fffffffffffffffffffffffffdffffffffffffffqo++++++++++++++++++++++++++++++++++++++++++++++++++O",
"O+O++++++++++++++++++++++++++++++o5ffffffffffffffffffffffffffffffffffffffffwo++++++++++++++++++++++++++++++++++++++++++++++++O+O",
"O+O+++++++++++++++++++++++++++++@o&>>>>>>>>>><ffffffffy:>>>>>,>>>>>>>>>>>>>-O++++++++++++++++++++++++++++++++++++++++++++++++O+O",
"O+O+++++++++++++++++++++++++++++OOoooXooXXXoooifffffffq oooXoooXoXXXoXXooooo+O+++++++++++++++++++++++++++++++++++++++++++++++O+O",
"O+++++++++++++++++++++++++++++++@O++++++@@+++oqffffffftO++++++@@++#+++#+++O+O++++++++++++++++++++++++++++++++++++++++++++++++++O",
"o+O++++++++++++++++++++++++++++++++++++++++@+.5fffffffyo+++++++++++++++++++++++++++++++++++++++++++++++++++++++++++++++++++++++O",
"+O++++++++++++++++++++++++++++++++++++++++O@+o<fffffffuO++++++++++++++++++++++++++++++++++++++++++++++++++++++++++++++++++++++OO",
"g++++++++++++++++++++++++++++++++++++++++++++o:fffffffyoO+++++++++++++++++++++++++++++++++++++++++++++++++++++++++++++++++++++Og",
"g++O++++++++++++++++++++++++++++++++++++++++@o-fffffffyo@+++++++++++++++++++++++++++++++++++++++++++++++++++++++++++++++++++O++g",
"g++O++++++++++++++++++++++++++++++++++++++++@o*fffffffto@+++++++++++++++++++++++++++++++++++++++++++++++++++++++++++++++++++O+Og",
"g++O++++++++++++++++++++++++++++++++++++++++@o-ffdffffqX@+++++++++++++++++++++++++++++++++++++++++++++++++++++++++++++++++++O+Og",
"gO+O+++++++++++++++++++++++++++++++++++++++++o;fffffff9X@O++++++++++++++++++++++++++++++++++++++++++++++++++++++++++++++++++O+Og",
"gOO++++++++++++++++++++++++++++++++++++++++++X>fffffdf4.@O+++++++++++++++++++++++++++++++++++++++++++++++++++++++++++++++++++OOg",
"ggO+O+++++++++++++++++++++++++++++++++++++O@+o3fffffff,o@++++++++++++++++++++++++++++++++++++++++++++++++++++++++++++++++++++Ogg",
"ggO+O++++++++++++++++++++++++++++++++++++++@+X9fdfffff=o+++++++++++++++++++++++++++++++++++++++++++++++++++++++++++++++++++O+Ogg",
"ggO+O+++++++++++++++++++++++++++++++++++++O++otffffffa$OO++++++++++++++++++++++++++++++++++++++++++++++++++++++++++++++++++O+Ogg",
"ggOO++++++++++++++++++++++++++++++++++++++@OO#sffffffyo@+++++++++++++++++++++++++++++++++++++++++++++++++++++++++++++++++++++Ogg",
"gggO+O+++++++++++++++++++++++++++++++++++++@o:fffffff7X@O+++++++++++++++++++++++++++++++++++++++++++++++++++++++++++++++++++Oggg",
"gggO+O++++++++++++++++++++++++++++++++++++@@.9fffffff:X@++++++++++++++++++++++++++++++++++++++++++++++++++++++++++++++++++O+Oggg",
"gggOO++++++++++++++++++++++++++++++++++++++O+affffffp#OO++++++++++++++++++++++++++++++++++++++++++++++++++++++++++++++++++++Oggg",
"ggggO+O++++++++++++++++++++++++++++++++++@+X1fffffff6X+@+++++++++++++++++++++++++++++++++++++++++++++++++++++++++++++++++O+Ogggg",
"ggggO+O+++++++++++++++++++++++++++++++++++o+iffffffd%O+++++++++++++++++++++++++++++++++++++++++++++++++++++++++++++++++++O+Ogggg",
"ggggO+++++++++++++++++++++++++++++++++++@+X4fffffff9o+O+++++++++++++++++++++++++++++++++++++++++++++++++++++++++++++++++++OOgggg",
"gggggO+O++++++++++++++++++++++++++++++OO@o&dffffffd%o++++++O++++++++++++++++++++++++++++++++++++++++++++++++++++++++++++O+Oggggg",
"gggggO++++++++++++++++++++++++++++++++O@OOyfffffff5.+++++++@+++++++++++++++++++++++++++++++++++++++++++++++++++++++++++++OOggggg",
"ggggggO++++++++++++++++++++++++++++++OO@.9fffffffi+O+O++++OO@O+++++++++++++++++++++++++++++++++++++++++++++++++++++++++O+Ogggggg",
"ggggggO+++++++++++++++++++++++++++++O+OX4ffffffff>o++#++++@#+++O+O+++++++++++++++++++++++O++O++++++++++++++++++++++++++O+Ogggggg",
"gggggggO+O+++++++++++++++++++++++++O@@X1ffffffffq.o.XooooooXXooo++++++OO+++++++++++++++++@OO+O++++++++++++++++++++++++O+Oggggggg",
"gggggggOO+++++++++++++++++++++++++O+OX3ffffffffa#$:39qyyytq95,-#oooo@+@@++OOO+++++++++@@oX#+O+++++++++++++++++++++++++O+Oggggggg",
"ggggggggO+O+++++++++++++++++++++O++Oo7fffffffffitdffffffffffdffdu9<&#oXooO+@+O++++++@Oo.$3s2.@+++++++++++++++++++++++O+Ogggggggg",
"ggggggggOO+O+++++++++++++++++++O+O.%tffffffffffffffdffdfffffffffffffar6,*#oooooOOoooX#:0sffto++++++++++++++++++++++++O+Ogggggggg",
"gggggggggO+O++++++++++++++++++O+O@3sfffffffffffffffffffffffffffffffffffffay03:&$#%-2qafffffd&o@+++++++++++++++++++++O+Oggggggggg",
"ggggggggggO+O+++++++++++++++++++o>fffffffffffffffffffffffffffffffffffffffffffffdsdffffffffff3X@O+++++++++++++++++++++OOggggggggg",
"ggggggggggO+++++++++++++++++++++O+afffffffffffffffffffffffffffffffffffffffdffffffffdffffffffyo@++++++++++++++++++++O+Ogggggggggg",
"gggggggggggO+O+++++++++++++++++O@X5fdffffffffffffffffffffffffffffffffffffffffffffffffffffffff&O+++++++++++++++++++O+Oggggggggggg",
"gggggggggggOO+O++++++++++++++++++o*ffffffffffffffffffffffffffffffffffffffffffffffffffffffffff5.++++++++++++++++++O+OOggggggggggg",
"ggggggggggggO+++++++++++++++++++++orfdfffffffffffffsiuyyuiaffffffdfffffffffffffffffffffffffffuo++++++++++++++++++++Ogggggggggggg",
"gggggggggggggO+O++++++++++++++++O+o,ffffffffffdu7,*$OOooXO#&:5tdffffffffffffffffffffffffffffff:o++++++++++++++++O+Oggggggggggggg",
"ggggggggggggggO+O+++++++++++++++OOO+affffffdt1&O.ooOO+O#$#oX  o%>0afffffffffffffffffffffdfffft-o+++++++++++++++O+Ogggggggggggggg",
"ggggggggggggggOO+O+++++++++++++++O@o6ffffa6&ooo+++++++o-fait9,+oXo+-7dffffffdfffffffffffffa7*oo@++++++++++++++O+OOgggggggggggggg",
"gggggggggggggggOO+O+++++++++++++++@o&ffa3#XO++++O+++O@o-ffffff&o+OOo qfffffffffffffffffa0>@Xo+@O+++++++++++++O++Oggggggggggggggg",
"ggggggggggggggggOO+O+++++++++++++++@oe9#XO+++O++++++O@o-fdffff*o+@+#oefffffy0uiasaiy03-+.oO@@+O+++++++++++++O+OOgggggggggggggggg",
"gggggggggggggggggO++++++++++++++++O+O@oo+OO+++++++++@@o-ffffff&o++++oefdfff3 O++#+OoXXoO@@+O++++++++++++++++++Oggggggggggggggggg",
"ggggggggggggggggggOO+O+++++++++++++O++++++++++++++++++o;ffffff&o++++oefffdf5o+OOOOO@@@@+++++++++++++++++++O++Ogggggggggggggggggg",
"gggggggggggggggggggO++O+++++++++++++O++O@O++++++++++++o-fffffd&o++++oqfffff5o+O+O+++@O+++++++++++++++++++O++Oggggggggggggggggggg",
"ggggggggggggggggggggOO+O++++++++++++++++++++++++++++++o-ffffff&o++++oefffff4X+O+++++++++++++++++++++++++O++Ogggggggggggggggggggg",
"gggggggggggggggggggggOO+O+++++++++++++++++++++++++++++o:ffffff&o++++Xefdfff4X@O++++++++++++++++++++++++O++Oggggggggggggggggggggg",
"ggggggggggggggggggggggOO+O++++++++++++++++++++++++++O@o;ffffff&o#O++oqfffff5.+@+++++++++++++++++++++++O+OOgggggggggggggggggggggg",
"gggggggggggggggggggggggOO++O++++++++++++++++++++++++O@o-ffffff&O@O++oefffdf4.+O+++++++++++++++++++++O++OOggggggggggggggggggggggg",
"gggggggggggggggggggggggggO++O+++++++++++++++++++++++++o-fffffd&o++++oqfffff4o+O++++++++++++++++++++O++Oggggggggggggggggggggggggg",
"ggggggggggggggggggggggggggOO++O+++++++++++++++++++++++o-ffffff&o++++owfffff4X+O+++++++++++++++++++OO@Ogggggggggggggggggggggggggg",
"gggggggggggggggggggggggggggOO++O++++++++++++++++++++++o-dssasa&o#O++o0dssaf3X+@@++++++++++++++++O++OOggggggggggggggggggggggggggg",
"gggggggggggggggggggggggggggggOO++O+++++++++++++++++++++@###$##+++OO+O##$###+OO+O++++++++++++++O++OOggggggggggggggggggggggggggggg",
"gggggggggggggggggggggggggggggggO+++O+++++++++++++++++O++oOoOo+O+O++OOOOoo+OO+O++++++++++++++O+++OOgggggggggggggggggggggggggggggg",
"ggggggggggggggggggggggggggggggggOOO+OO++++++++++++++++O++++O+++O++++O+++++++O+++++++++++++OO+OOOgggggggggggggggggggggggggggggggg",
"ggggggggggggggggggggggggggggggggggOO+++O++++++++++++++++++++++++++++++++++++++++++++++++O+++OOgggggggggggggggggggggggggggggggggg",
"ggggggggggggggggggggggggggggggggggggOO+++OO++++++++++++++++++++++++++++++++++++++++++OO++OOOgggggggggggggggggggggggggggggggggggg",
"ggggggggggggggggggggggggggggggggggggggOOO+++OO++++++++++++++++++++++++++++++++++++O+++++OOgggggggggggggggggggggggggggggggggggggg",
"ggggggggggggggggggggggggggggggggggggggggOOO@++++@O+++++++++++++++++++++++++++++OO++++OOOgggggggggggggggggggggggggggggggggggggggg",
"gggggggggggggggggggggggggggggggggggggggggggOOOO++++OOOOO+++++++++++++++++OOOO++++OOOOggggggggggggggggggggggggggggggggggggggggggg",
"ggggggggggggggggggggggggggggggggggggggggggggggOOOOO++++++++OOOOOOOOOO+O++++++OOOOOgggggggggggggggggggggggggggggggggggggggggggggg",
"ggggggggggggggggggggggggggggggggggggggggggggggggggOOOOOOO@+++++++++++O+OOOOOOOgggggggggggggggggggggggggggggggggggggggggggggggggg",
"ggggggggggggggggggggggggggggggggggggggggggggggggggggggggOOOOOOOOOOOOOOOOgggggggggggggggggggggggggggggggggggggggggggggggggggggggg"
};
